<svg width="584" height="152" viewBox="0 0 584 152" fill="none" xmlns="http://www.w3.org/2000/svg">
<path d="M0.290009 4.27V53.0346H98.2651V151H147.02V4.27H0.290009Z" fill="#993F90"/>
<path d="M28.132 123.168V87.4277L0.290009 67.3869V151H83.9128L63.872 123.168H28.132Z" fill="#624198"/>
<path d="M184.284 93V23.1818H201.159V79.2955H230.205V93H184.284ZM228.125 36.8864V23.1818H287.136V36.8864H265.966V93H249.33V36.8864H228.125Z" fill="#624198"/>
<path d="M295.378 93V23.1818H343.037V36.8864H312.253V51.2045H340.003V64.9432H312.253V93H295.378ZM351.534 93V23.1818H368.409V79.2955H397.455V93H351.534ZM430.634 93.9886C425.134 93.9886 420.406 92.8636 416.452 90.6136C412.52 88.3409 409.486 85.1818 407.349 81.1364C405.236 77.0682 404.179 72.3523 404.179 66.9886C404.179 61.6023 405.236 56.8864 407.349 52.8409C409.486 48.7727 412.52 45.6136 416.452 43.3636C420.406 41.0909 425.134 39.9545 430.634 39.9545C436.134 39.9545 440.849 41.0909 444.781 43.3636C448.736 45.6136 451.77 48.7727 453.884 52.8409C456.02 56.8864 457.088 61.6023 457.088 66.9886C457.088 72.3523 456.02 77.0682 453.884 81.1364C451.77 85.1818 448.736 88.3409 444.781 90.6136C440.849 92.8636 436.134 93.9886 430.634 93.9886ZM430.736 81.4091C432.736 81.4091 434.429 80.7955 435.815 79.5682C437.202 78.3409 438.259 76.6364 438.986 74.4545C439.736 72.2727 440.111 69.75 440.111 66.8864C440.111 63.9773 439.736 61.4318 438.986 59.25C438.259 57.0682 437.202 55.3636 435.815 54.1364C434.429 52.9091 432.736 52.2955 430.736 52.2955C428.668 52.2955 426.918 52.9091 425.486 54.1364C424.077 55.3636 422.997 57.0682 422.247 59.25C421.52 61.4318 421.156 63.9773 421.156 66.8864C421.156 69.75 421.52 72.2727 422.247 74.4545C422.997 76.6364 424.077 78.3409 425.486 79.5682C426.918 80.7955 428.668 81.4091 430.736 81.4091ZM477.491 93L457.173 23.1818H475.821L486.355 68.9318H486.935L498.969 23.1818H514.173L526.207 69.0341H526.787L537.355 23.1818H555.969L535.685 93H519.423L506.844 50.6591H506.298L493.719 93H477.491Z" fill="#993F90"/>
<path d="M183.227 151V116.091H195.023C197.761 116.091 200 116.585 201.739 117.574C203.489 118.551 204.784 119.875 205.625 121.545C206.466 123.216 206.886 125.08 206.886 127.136C206.886 129.193 206.466 131.062 205.625 132.744C204.795 134.426 203.511 135.767 201.773 136.767C200.034 137.756 197.807 138.25 195.091 138.25H186.636V134.5H194.955C196.83 134.5 198.335 134.176 199.472 133.528C200.608 132.881 201.432 132.006 201.943 130.903C202.466 129.79 202.727 128.534 202.727 127.136C202.727 125.739 202.466 124.489 201.943 123.386C201.432 122.284 200.602 121.42 199.455 120.795C198.307 120.159 196.784 119.841 194.886 119.841H187.455V151H183.227ZM223.506 151.545C221.142 151.545 219.068 150.983 217.284 149.858C215.511 148.733 214.125 147.159 213.125 145.136C212.136 143.114 211.642 140.75 211.642 138.045C211.642 135.318 212.136 132.937 213.125 130.903C214.125 128.869 215.511 127.29 217.284 126.165C219.068 125.04 221.142 124.477 223.506 124.477C225.869 124.477 227.938 125.04 229.71 126.165C231.494 127.29 232.881 128.869 233.869 130.903C234.869 132.937 235.369 135.318 235.369 138.045C235.369 140.75 234.869 143.114 233.869 145.136C232.881 147.159 231.494 148.733 229.71 149.858C227.938 150.983 225.869 151.545 223.506 151.545ZM223.506 147.932C225.301 147.932 226.778 147.472 227.938 146.551C229.097 145.631 229.955 144.42 230.511 142.92C231.068 141.42 231.347 139.795 231.347 138.045C231.347 136.295 231.068 134.665 230.511 133.153C229.955 131.642 229.097 130.42 227.938 129.489C226.778 128.557 225.301 128.091 223.506 128.091C221.71 128.091 220.233 128.557 219.074 129.489C217.915 130.42 217.057 131.642 216.5 133.153C215.943 134.665 215.665 136.295 215.665 138.045C215.665 139.795 215.943 141.42 216.5 142.92C217.057 144.42 217.915 145.631 219.074 146.551C220.233 147.472 221.71 147.932 223.506 147.932ZM246.551 151L238.574 124.818H242.801L248.46 144.864H248.733L254.324 124.818H258.619L264.142 144.795H264.415L270.074 124.818H274.301L266.324 151H262.369L256.642 130.886H256.233L250.506 151H246.551ZM289.706 151.545C287.183 151.545 285.007 150.989 283.178 149.875C281.359 148.75 279.956 147.182 278.967 145.17C277.99 143.148 277.501 140.795 277.501 138.114C277.501 135.432 277.99 133.068 278.967 131.023C279.956 128.966 281.331 127.364 283.092 126.216C284.865 125.057 286.933 124.477 289.297 124.477C290.661 124.477 292.007 124.705 293.337 125.159C294.666 125.614 295.876 126.352 296.967 127.375C298.058 128.386 298.928 129.727 299.575 131.398C300.223 133.068 300.547 135.125 300.547 137.568V139.273H280.365V135.795H296.456C296.456 134.318 296.161 133 295.57 131.841C294.99 130.682 294.161 129.767 293.081 129.097C292.013 128.426 290.751 128.091 289.297 128.091C287.695 128.091 286.308 128.489 285.138 129.284C283.979 130.068 283.087 131.091 282.462 132.352C281.837 133.614 281.524 134.966 281.524 136.409V138.727C281.524 140.705 281.865 142.381 282.547 143.756C283.24 145.119 284.2 146.159 285.428 146.875C286.655 147.58 288.081 147.932 289.706 147.932C290.763 147.932 291.717 147.784 292.57 147.489C293.433 147.182 294.178 146.727 294.803 146.125C295.428 145.511 295.911 144.75 296.251 143.841L300.138 144.932C299.729 146.25 299.041 147.409 298.075 148.409C297.109 149.398 295.916 150.17 294.496 150.727C293.075 151.273 291.479 151.545 289.706 151.545ZM306.666 151V124.818H310.553V128.773H310.825C311.303 127.477 312.166 126.426 313.416 125.619C314.666 124.812 316.075 124.409 317.643 124.409C317.939 124.409 318.308 124.415 318.751 124.426C319.195 124.437 319.53 124.455 319.757 124.477V128.568C319.621 128.534 319.308 128.483 318.82 128.415C318.342 128.335 317.837 128.295 317.303 128.295C316.03 128.295 314.893 128.562 313.893 129.097C312.905 129.619 312.121 130.347 311.541 131.278C310.973 132.199 310.689 133.25 310.689 134.432V151H306.666ZM349.412 124.818V128.227H335.844V124.818H349.412ZM339.798 118.545H343.821V143.5C343.821 144.636 343.986 145.489 344.315 146.057C344.656 146.614 345.088 146.989 345.611 147.182C346.145 147.364 346.707 147.455 347.298 147.455C347.741 147.455 348.105 147.432 348.389 147.386C348.673 147.33 348.901 147.284 349.071 147.25L349.889 150.864C349.616 150.966 349.236 151.068 348.747 151.17C348.259 151.284 347.639 151.341 346.889 151.341C345.753 151.341 344.639 151.097 343.548 150.608C342.469 150.119 341.571 149.375 340.855 148.375C340.151 147.375 339.798 146.114 339.798 144.591V118.545ZM365.818 151.545C363.455 151.545 361.381 150.983 359.597 149.858C357.824 148.733 356.438 147.159 355.438 145.136C354.449 143.114 353.955 140.75 353.955 138.045C353.955 135.318 354.449 132.937 355.438 130.903C356.438 128.869 357.824 127.29 359.597 126.165C361.381 125.04 363.455 124.477 365.818 124.477C368.182 124.477 370.25 125.04 372.023 126.165C373.807 127.29 375.193 128.869 376.182 130.903C377.182 132.937 377.682 135.318 377.682 138.045C377.682 140.75 377.182 143.114 376.182 145.136C375.193 147.159 373.807 148.733 372.023 149.858C370.25 150.983 368.182 151.545 365.818 151.545ZM365.818 147.932C367.614 147.932 369.091 147.472 370.25 146.551C371.409 145.631 372.267 144.42 372.824 142.92C373.381 141.42 373.659 139.795 373.659 138.045C373.659 136.295 373.381 134.665 372.824 133.153C372.267 131.642 371.409 130.42 370.25 129.489C369.091 128.557 367.614 128.091 365.818 128.091C364.023 128.091 362.545 128.557 361.386 129.489C360.227 130.42 359.369 131.642 358.812 133.153C358.256 134.665 357.977 136.295 357.977 138.045C357.977 139.795 358.256 141.42 358.812 142.92C359.369 144.42 360.227 145.631 361.386 146.551C362.545 147.472 364.023 147.932 365.818 147.932ZM397.868 151V116.091H402.095V147.25H418.322V151H397.868ZM435.3 151.545C432.777 151.545 430.601 150.989 428.771 149.875C426.953 148.75 425.55 147.182 424.561 145.17C423.584 143.148 423.095 140.795 423.095 138.114C423.095 135.432 423.584 133.068 424.561 131.023C425.55 128.966 426.925 127.364 428.686 126.216C430.459 125.057 432.527 124.477 434.891 124.477C436.254 124.477 437.601 124.705 438.93 125.159C440.26 125.614 441.47 126.352 442.561 127.375C443.652 128.386 444.521 129.727 445.169 131.398C445.817 133.068 446.141 135.125 446.141 137.568V139.273H425.959V135.795H442.05C442.05 134.318 441.754 133 441.163 131.841C440.584 130.682 439.754 129.767 438.675 129.097C437.607 128.426 436.345 128.091 434.891 128.091C433.288 128.091 431.902 128.489 430.732 129.284C429.572 130.068 428.68 131.091 428.055 132.352C427.43 133.614 427.118 134.966 427.118 136.409V138.727C427.118 140.705 427.459 142.381 428.141 143.756C428.834 145.119 429.794 146.159 431.021 146.875C432.249 147.58 433.675 147.932 435.3 147.932C436.357 147.932 437.311 147.784 438.163 147.489C439.027 147.182 439.771 146.727 440.396 146.125C441.021 145.511 441.504 144.75 441.845 143.841L445.732 144.932C445.322 146.25 444.635 147.409 443.669 148.409C442.703 149.398 441.51 150.17 440.089 150.727C438.669 151.273 437.072 151.545 435.3 151.545ZM456.283 135.25V151H452.26V124.818H456.146V128.909H456.487C457.101 127.58 458.033 126.511 459.283 125.705C460.533 124.886 462.146 124.477 464.124 124.477C465.896 124.477 467.447 124.841 468.777 125.568C470.107 126.284 471.141 127.375 471.879 128.841C472.618 130.295 472.987 132.136 472.987 134.364V151H468.964V134.636C468.964 132.58 468.43 130.977 467.362 129.83C466.294 128.67 464.828 128.091 462.964 128.091C461.68 128.091 460.533 128.369 459.521 128.926C458.521 129.483 457.732 130.295 457.152 131.364C456.572 132.432 456.283 133.727 456.283 135.25ZM490.224 151.545C488.043 151.545 486.116 150.994 484.446 149.892C482.776 148.778 481.469 147.21 480.526 145.188C479.582 143.153 479.111 140.75 479.111 137.977C479.111 135.227 479.582 132.841 480.526 130.818C481.469 128.795 482.781 127.233 484.463 126.131C486.145 125.028 488.088 124.477 490.293 124.477C491.997 124.477 493.344 124.761 494.332 125.33C495.332 125.886 496.094 126.523 496.616 127.239C497.151 127.943 497.565 128.523 497.861 128.977H498.202V116.091H502.224V151H498.338V146.977H497.861C497.565 147.455 497.145 148.057 496.599 148.784C496.054 149.5 495.276 150.142 494.264 150.71C493.253 151.267 491.906 151.545 490.224 151.545ZM490.77 147.932C492.384 147.932 493.747 147.511 494.861 146.67C495.974 145.818 496.821 144.642 497.401 143.142C497.98 141.631 498.27 139.886 498.27 137.909C498.27 135.955 497.986 134.244 497.418 132.778C496.849 131.301 496.009 130.153 494.895 129.335C493.781 128.506 492.406 128.091 490.77 128.091C489.065 128.091 487.645 128.528 486.509 129.403C485.384 130.267 484.537 131.443 483.969 132.932C483.412 134.409 483.134 136.068 483.134 137.909C483.134 139.773 483.418 141.466 483.986 142.989C484.565 144.5 485.418 145.705 486.543 146.602C487.679 147.489 489.088 147.932 490.77 147.932Z" fill="#564C58"/>
</svg>
